# xmcd
#
# Track frame offsets:
#	150
#	12537
#	26152
#	35726
#	47538
#	57605
#	70428
#	78891
#	92461
#	101228
#	112465
#	125397
#	137572
#	148977
#	160145
#	170876
#	180816
#	192313
#	202001
#	212188
#	221875
#	233148
#	242992
#	253941
#
# Disc length: 3529 seconds
#
# Revision: 1
# Processed by: cddbd v1.5.2PL0 Copyright (c) Steve Scherf et al.
# Submitted via: audiograbber 1.83.01
#
DISCID=7c0dc718
DTITLE=don gibson - some favorites of mine (1962) singles 1956 - 1962
DYEAR=2013
DGENRE=Country
TTITLE0=where is your heart tonight
TTITLE1=blue dream
TTITLE2=how's the world treating you
TTITLE3=may you never be alone
TTITLE4=settin' the woods on fire
TTITLE5=we live in two different worlds
TTITLE6=baby we're really in love
TTITLE7=it makes no difference now
TTITLE8=i love you so much it hurts
TTITLE9=it's a sin
TTITLE10=i'm sorry for you my friend
TTITLE11=this cold war with you
TTITLE12=sweet dreams (1956)
TTITLE13=give myself a party (1958)
TTITLE14=look who's blue (1958)
TTITLE15=who cares (for me) (1959)
TTITLE16=a stranger to me (1959)
TTITLE17=lonesome old house (1959)
TTITLE18=don't tell me your troubles (1959)
TTITLE19=i'm movin' on (1959)
TTITLE20=sea of a heartbreak (1961)
TTITLE21=lonesome number one (1961)
TTITLE22=i can mend your broken heart (1962)
TTITLE23=so how come (no one loves me) (1962)
EXTD=
EXTT0=
EXTT1=
EXTT2=
EXTT3=
EXTT4=
EXTT5=
EXTT6=
EXTT7=
EXTT8=
EXTT9=
EXTT10=
EXTT11=
EXTT12=
EXTT13=
EXTT14=
EXTT15=
EXTT16=
EXTT17=
EXTT18=
EXTT19=
EXTT20=
EXTT21=
EXTT22=
EXTT23=
PLAYORDER=
